<mxfile host="app.diagrams.net" modified="2024-05-23T14:24:36.384Z" agent="Mozilla/5.0 (Windows NT 10.0; Win64; x64) AppleWebKit/537.36 (KHTML, like Gecko) Chrome/124.0.0.0 Safari/537.36" etag="ogiS2tVpaTzLG8hi9oXM" version="24.4.6" type="device">
  <diagram name="PÃ¡gina-1" id="eRbTKKti-6n_wJgkllMC">
    <mxGraphModel dx="2694" dy="767" grid="1" gridSize="10" guides="1" tooltips="1" connect="1" arrows="1" fold="1" page="1" pageScale="1" pageWidth="827" pageHeight="1169" math="0" shadow="0">
      <root>
        <mxCell id="0" />
        <mxCell id="1" parent="0" />
        <mxCell id="pjp7quRf7_-ofdf2TTfP-2" value="" style="image;html=1;image=img/lib/clip_art/computers/Server_Rack_128x128.png" vertex="1" parent="1">
          <mxGeometry x="310" y="360" width="220" height="280" as="geometry" />
        </mxCell>
        <mxCell id="pjp7quRf7_-ofdf2TTfP-91" style="edgeStyle=orthogonalEdgeStyle;rounded=0;orthogonalLoop=1;jettySize=auto;html=1;entryX=0.5;entryY=0;entryDx=0;entryDy=0;" edge="1" parent="1" source="pjp7quRf7_-ofdf2TTfP-13" target="pjp7quRf7_-ofdf2TTfP-2">
          <mxGeometry relative="1" as="geometry" />
        </mxCell>
        <mxCell id="pjp7quRf7_-ofdf2TTfP-13" value="" style="image;html=1;image=img/lib/clip_art/computers/Netbook_128x128.png" vertex="1" parent="1">
          <mxGeometry x="20" y="240" width="50" height="40" as="geometry" />
        </mxCell>
        <mxCell id="pjp7quRf7_-ofdf2TTfP-90" style="edgeStyle=orthogonalEdgeStyle;rounded=0;orthogonalLoop=1;jettySize=auto;html=1;entryX=0.25;entryY=0;entryDx=0;entryDy=0;" edge="1" parent="1" source="pjp7quRf7_-ofdf2TTfP-61" target="pjp7quRf7_-ofdf2TTfP-2">
          <mxGeometry relative="1" as="geometry" />
        </mxCell>
        <mxCell id="pjp7quRf7_-ofdf2TTfP-61" value="" style="image;html=1;image=img/lib/clip_art/computers/Netbook_128x128.png" vertex="1" parent="1">
          <mxGeometry x="20" y="290" width="50" height="40" as="geometry" />
        </mxCell>
        <mxCell id="pjp7quRf7_-ofdf2TTfP-89" style="edgeStyle=orthogonalEdgeStyle;rounded=0;orthogonalLoop=1;jettySize=auto;html=1;" edge="1" parent="1" source="pjp7quRf7_-ofdf2TTfP-62">
          <mxGeometry relative="1" as="geometry">
            <mxPoint x="290.0000000000002" y="370" as="targetPoint" />
          </mxGeometry>
        </mxCell>
        <mxCell id="pjp7quRf7_-ofdf2TTfP-62" value="" style="image;html=1;image=img/lib/clip_art/computers/Netbook_128x128.png" vertex="1" parent="1">
          <mxGeometry x="20" y="350" width="50" height="40" as="geometry" />
        </mxCell>
        <mxCell id="pjp7quRf7_-ofdf2TTfP-88" style="edgeStyle=orthogonalEdgeStyle;rounded=0;orthogonalLoop=1;jettySize=auto;html=1;" edge="1" parent="1" source="pjp7quRf7_-ofdf2TTfP-63">
          <mxGeometry relative="1" as="geometry">
            <mxPoint x="300.0000000000002" y="420" as="targetPoint" />
          </mxGeometry>
        </mxCell>
        <mxCell id="pjp7quRf7_-ofdf2TTfP-63" value="" style="image;html=1;image=img/lib/clip_art/computers/Netbook_128x128.png" vertex="1" parent="1">
          <mxGeometry x="20" y="400" width="50" height="40" as="geometry" />
        </mxCell>
        <mxCell id="pjp7quRf7_-ofdf2TTfP-64" value="" style="image;html=1;image=img/lib/clip_art/computers/Netbook_128x128.png" vertex="1" parent="1">
          <mxGeometry x="20" y="450" width="50" height="40" as="geometry" />
        </mxCell>
        <mxCell id="pjp7quRf7_-ofdf2TTfP-65" value="" style="image;html=1;image=img/lib/clip_art/computers/Netbook_128x128.png" vertex="1" parent="1">
          <mxGeometry x="20" y="500" width="50" height="40" as="geometry" />
        </mxCell>
        <mxCell id="pjp7quRf7_-ofdf2TTfP-66" value="" style="image;html=1;image=img/lib/clip_art/computers/Netbook_128x128.png" vertex="1" parent="1">
          <mxGeometry x="20" y="544.5" width="50" height="40" as="geometry" />
        </mxCell>
        <mxCell id="pjp7quRf7_-ofdf2TTfP-67" value="" style="image;html=1;image=img/lib/clip_art/computers/Netbook_128x128.png" vertex="1" parent="1">
          <mxGeometry x="20" y="590" width="50" height="40" as="geometry" />
        </mxCell>
        <mxCell id="pjp7quRf7_-ofdf2TTfP-68" value="" style="image;html=1;image=img/lib/clip_art/computers/Netbook_128x128.png" vertex="1" parent="1">
          <mxGeometry x="20" y="640" width="50" height="40" as="geometry" />
        </mxCell>
        <mxCell id="pjp7quRf7_-ofdf2TTfP-69" value="" style="image;html=1;image=img/lib/clip_art/computers/Netbook_128x128.png" vertex="1" parent="1">
          <mxGeometry x="20" y="690" width="50" height="40" as="geometry" />
        </mxCell>
        <mxCell id="pjp7quRf7_-ofdf2TTfP-74" value="" style="image;html=1;image=img/lib/clip_art/computers/Netbook_128x128.png" vertex="1" parent="1">
          <mxGeometry x="30" y="750" width="50" height="40" as="geometry" />
        </mxCell>
        <mxCell id="pjp7quRf7_-ofdf2TTfP-87" style="edgeStyle=orthogonalEdgeStyle;rounded=0;orthogonalLoop=1;jettySize=auto;html=1;entryX=-0.017;entryY=0.392;entryDx=0;entryDy=0;entryPerimeter=0;" edge="1" parent="1" source="pjp7quRf7_-ofdf2TTfP-64" target="pjp7quRf7_-ofdf2TTfP-2">
          <mxGeometry relative="1" as="geometry" />
        </mxCell>
        <mxCell id="pjp7quRf7_-ofdf2TTfP-92" style="edgeStyle=orthogonalEdgeStyle;rounded=0;orthogonalLoop=1;jettySize=auto;html=1;entryX=0.045;entryY=0.893;entryDx=0;entryDy=0;entryPerimeter=0;" edge="1" parent="1" source="pjp7quRf7_-ofdf2TTfP-67" target="pjp7quRf7_-ofdf2TTfP-2">
          <mxGeometry relative="1" as="geometry" />
        </mxCell>
        <mxCell id="pjp7quRf7_-ofdf2TTfP-94" style="edgeStyle=orthogonalEdgeStyle;rounded=0;orthogonalLoop=1;jettySize=auto;html=1;entryX=-0.009;entryY=0.713;entryDx=0;entryDy=0;entryPerimeter=0;" edge="1" parent="1" source="pjp7quRf7_-ofdf2TTfP-66" target="pjp7quRf7_-ofdf2TTfP-2">
          <mxGeometry relative="1" as="geometry" />
        </mxCell>
        <mxCell id="pjp7quRf7_-ofdf2TTfP-95" style="edgeStyle=orthogonalEdgeStyle;rounded=0;orthogonalLoop=1;jettySize=auto;html=1;entryX=-0.009;entryY=0.576;entryDx=0;entryDy=0;entryPerimeter=0;" edge="1" parent="1" source="pjp7quRf7_-ofdf2TTfP-65" target="pjp7quRf7_-ofdf2TTfP-2">
          <mxGeometry relative="1" as="geometry" />
        </mxCell>
        <mxCell id="pjp7quRf7_-ofdf2TTfP-96" style="edgeStyle=orthogonalEdgeStyle;rounded=0;orthogonalLoop=1;jettySize=auto;html=1;entryX=0.582;entryY=0.999;entryDx=0;entryDy=0;entryPerimeter=0;" edge="1" parent="1" source="pjp7quRf7_-ofdf2TTfP-68" target="pjp7quRf7_-ofdf2TTfP-2">
          <mxGeometry relative="1" as="geometry" />
        </mxCell>
        <mxCell id="pjp7quRf7_-ofdf2TTfP-97" style="edgeStyle=orthogonalEdgeStyle;rounded=0;orthogonalLoop=1;jettySize=auto;html=1;entryX=0.68;entryY=0.999;entryDx=0;entryDy=0;entryPerimeter=0;" edge="1" parent="1" source="pjp7quRf7_-ofdf2TTfP-69" target="pjp7quRf7_-ofdf2TTfP-2">
          <mxGeometry relative="1" as="geometry" />
        </mxCell>
        <mxCell id="pjp7quRf7_-ofdf2TTfP-98" style="edgeStyle=orthogonalEdgeStyle;rounded=0;orthogonalLoop=1;jettySize=auto;html=1;entryX=0.809;entryY=1.011;entryDx=0;entryDy=0;entryPerimeter=0;" edge="1" parent="1" source="pjp7quRf7_-ofdf2TTfP-74" target="pjp7quRf7_-ofdf2TTfP-2">
          <mxGeometry relative="1" as="geometry" />
        </mxCell>
        <mxCell id="pjp7quRf7_-ofdf2TTfP-99" value="" style="image;html=1;image=img/lib/clip_art/networking/Print_Server_Wireless_128x128.png" vertex="1" parent="1">
          <mxGeometry x="840" y="560" width="100" height="90" as="geometry" />
        </mxCell>
        <mxCell id="pjp7quRf7_-ofdf2TTfP-100" value="" style="image;html=1;image=img/lib/clip_art/computers/Printer_128x128.png" vertex="1" parent="1">
          <mxGeometry x="840" y="280" width="80" height="80" as="geometry" />
        </mxCell>
        <mxCell id="pjp7quRf7_-ofdf2TTfP-102" value="" style="image;html=1;image=img/lib/clip_art/computers/Printer_128x128.png" vertex="1" parent="1">
          <mxGeometry x="845" y="460" width="80" height="80" as="geometry" />
        </mxCell>
        <mxCell id="pjp7quRf7_-ofdf2TTfP-103" style="edgeStyle=orthogonalEdgeStyle;rounded=0;orthogonalLoop=1;jettySize=auto;html=1;entryX=1.021;entryY=0.142;entryDx=0;entryDy=0;entryPerimeter=0;" edge="1" parent="1" source="pjp7quRf7_-ofdf2TTfP-100" target="pjp7quRf7_-ofdf2TTfP-2">
          <mxGeometry relative="1" as="geometry" />
        </mxCell>
        <mxCell id="pjp7quRf7_-ofdf2TTfP-104" style="edgeStyle=orthogonalEdgeStyle;rounded=0;orthogonalLoop=1;jettySize=auto;html=1;entryX=1.014;entryY=0.302;entryDx=0;entryDy=0;entryPerimeter=0;" edge="1" parent="1" source="pjp7quRf7_-ofdf2TTfP-102" target="pjp7quRf7_-ofdf2TTfP-2">
          <mxGeometry relative="1" as="geometry" />
        </mxCell>
        <mxCell id="pjp7quRf7_-ofdf2TTfP-105" style="edgeStyle=orthogonalEdgeStyle;rounded=0;orthogonalLoop=1;jettySize=auto;html=1;entryX=1.006;entryY=0.677;entryDx=0;entryDy=0;entryPerimeter=0;" edge="1" parent="1" source="pjp7quRf7_-ofdf2TTfP-99" target="pjp7quRf7_-ofdf2TTfP-2">
          <mxGeometry relative="1" as="geometry" />
        </mxCell>
        <mxCell id="pjp7quRf7_-ofdf2TTfP-106" value="&lt;font style=&quot;font-size: 19px;&quot;&gt;P3&lt;/font&gt;" style="ellipse;whiteSpace=wrap;html=1;aspect=fixed;" vertex="1" parent="1">
          <mxGeometry x="940" y="305" width="30" height="30" as="geometry" />
        </mxCell>
        <mxCell id="pjp7quRf7_-ofdf2TTfP-107" value="&lt;font style=&quot;font-size: 19px;&quot;&gt;P6&lt;/font&gt;" style="ellipse;whiteSpace=wrap;html=1;aspect=fixed;" vertex="1" parent="1">
          <mxGeometry x="940" y="490" width="30" height="30" as="geometry" />
        </mxCell>
        <mxCell id="pjp7quRf7_-ofdf2TTfP-108" value="&lt;font style=&quot;font-size: 19px;&quot;&gt;P7&lt;/font&gt;" style="ellipse;whiteSpace=wrap;html=1;aspect=fixed;" vertex="1" parent="1">
          <mxGeometry x="950" y="610" width="30" height="30" as="geometry" />
        </mxCell>
        <mxCell id="pjp7quRf7_-ofdf2TTfP-110" value="&lt;font style=&quot;font-size: 19px;&quot;&gt;P1&lt;/font&gt;" style="ellipse;whiteSpace=wrap;html=1;aspect=fixed;" vertex="1" parent="1">
          <mxGeometry x="-30" y="240" width="40" height="40" as="geometry" />
        </mxCell>
        <mxCell id="pjp7quRf7_-ofdf2TTfP-112" value="&lt;font style=&quot;font-size: 19px;&quot;&gt;P2&lt;/font&gt;" style="ellipse;whiteSpace=wrap;html=1;aspect=fixed;" vertex="1" parent="1">
          <mxGeometry x="-30" y="290" width="40" height="40" as="geometry" />
        </mxCell>
        <mxCell id="pjp7quRf7_-ofdf2TTfP-113" value="&lt;font style=&quot;font-size: 19px;&quot;&gt;P10&lt;/font&gt;" style="ellipse;whiteSpace=wrap;html=1;aspect=fixed;" vertex="1" parent="1">
          <mxGeometry x="-30" y="549.5" width="40" height="40" as="geometry" />
        </mxCell>
        <mxCell id="pjp7quRf7_-ofdf2TTfP-114" value="&lt;font style=&quot;font-size: 19px;&quot;&gt;P11&lt;/font&gt;" style="ellipse;whiteSpace=wrap;html=1;aspect=fixed;" vertex="1" parent="1">
          <mxGeometry x="-30" y="595" width="40" height="40" as="geometry" />
        </mxCell>
        <mxCell id="pjp7quRf7_-ofdf2TTfP-115" value="&lt;font style=&quot;font-size: 19px;&quot;&gt;P12&lt;/font&gt;" style="ellipse;whiteSpace=wrap;html=1;aspect=fixed;" vertex="1" parent="1">
          <mxGeometry x="-30" y="650" width="40" height="40" as="geometry" />
        </mxCell>
        <mxCell id="pjp7quRf7_-ofdf2TTfP-116" value="&lt;font style=&quot;font-size: 19px;&quot;&gt;P13&lt;/font&gt;" style="ellipse;whiteSpace=wrap;html=1;aspect=fixed;" vertex="1" parent="1">
          <mxGeometry x="-30" y="700" width="40" height="40" as="geometry" />
        </mxCell>
        <mxCell id="pjp7quRf7_-ofdf2TTfP-117" value="&lt;font style=&quot;font-size: 19px;&quot;&gt;P14&lt;/font&gt;" style="ellipse;whiteSpace=wrap;html=1;aspect=fixed;" vertex="1" parent="1">
          <mxGeometry x="-30" y="750" width="40" height="40" as="geometry" />
        </mxCell>
        <mxCell id="pjp7quRf7_-ofdf2TTfP-120" value="&lt;font style=&quot;font-size: 19px;&quot;&gt;P4&lt;/font&gt;" style="ellipse;whiteSpace=wrap;html=1;aspect=fixed;" vertex="1" parent="1">
          <mxGeometry x="-30" y="350" width="40" height="40" as="geometry" />
        </mxCell>
        <mxCell id="pjp7quRf7_-ofdf2TTfP-121" value="&lt;font style=&quot;font-size: 19px;&quot;&gt;P5&lt;/font&gt;" style="ellipse;whiteSpace=wrap;html=1;aspect=fixed;" vertex="1" parent="1">
          <mxGeometry x="-30" y="400" width="40" height="40" as="geometry" />
        </mxCell>
        <mxCell id="pjp7quRf7_-ofdf2TTfP-125" value="" style="edgeStyle=orthogonalEdgeStyle;rounded=0;orthogonalLoop=1;jettySize=auto;html=1;" edge="1" parent="1" source="pjp7quRf7_-ofdf2TTfP-122" target="pjp7quRf7_-ofdf2TTfP-121">
          <mxGeometry relative="1" as="geometry" />
        </mxCell>
        <mxCell id="pjp7quRf7_-ofdf2TTfP-122" value="&lt;font style=&quot;font-size: 19px;&quot;&gt;P8&lt;/font&gt;" style="ellipse;whiteSpace=wrap;html=1;aspect=fixed;" vertex="1" parent="1">
          <mxGeometry x="-30" y="450" width="40" height="40" as="geometry" />
        </mxCell>
        <mxCell id="pjp7quRf7_-ofdf2TTfP-124" value="" style="edgeStyle=orthogonalEdgeStyle;rounded=0;orthogonalLoop=1;jettySize=auto;html=1;" edge="1" parent="1" source="pjp7quRf7_-ofdf2TTfP-123" target="pjp7quRf7_-ofdf2TTfP-122">
          <mxGeometry relative="1" as="geometry" />
        </mxCell>
        <mxCell id="pjp7quRf7_-ofdf2TTfP-123" value="&lt;font style=&quot;font-size: 19px;&quot;&gt;P9&lt;/font&gt;" style="ellipse;whiteSpace=wrap;html=1;aspect=fixed;" vertex="1" parent="1">
          <mxGeometry x="-30" y="500" width="40" height="40" as="geometry" />
        </mxCell>
      </root>
    </mxGraphModel>
  </diagram>
</mxfile>
